<?xml version="1.0" encoding="utf-8"?>
<!-- Generator: Adobe Illustrator 28.1.0, SVG Export Plug-In . SVG Version: 6.00 Build 0)  -->
<svg version="1.1" id="Layer_1" xmlns="http://www.w3.org/2000/svg" xmlns:xlink="http://www.w3.org/1999/xlink" x="0px" y="0px"
	 viewBox="0 0 1024 1024" style="enable-background:new 0 0 1024 1024;" xml:space="preserve">
<style type="text/css">
	.st0{fill:#0C3B2E;}
</style>
<g>
	<path class="st0" d="M189.43,931.68c-21.68-21.82-32.51-54.4-32.51-97.74V192.18c0-44.19,10.9-77.33,32.72-99.43
		c21.81-22.09,54.53-33.14,98.16-33.14h448.38c43.63,0,76.35,11.12,98.16,33.35c21.81,22.24,32.72,55.31,32.72,99.22v484.27
		c0,21.11-3.95,37.58-11.82,49.4c-7.88,11.82-15.77,21.68-23.64,29.55c-17.46,17.73-28.15,36.24-32.09,55.52
		c-3.94,19.28-2.04,36.87,5.7,52.78c7.74,15.9,20.48,27.37,38.21,34.41c6.75,2.25,12.38,6.4,16.89,12.46
		c4.5,6.05,6.76,12.73,6.76,20.05c0,9.29-3.31,17.24-9.92,23.86c-6.62,6.61-14.57,9.92-23.86,9.92H286.54
		C243.47,964.4,211.1,953.49,189.43,931.68z M748.01,896.42c-11.26-18.3-17.52-38.49-18.79-60.59
		c-1.26-22.09,3.02-44.12,12.88-66.07c-4.51,0.84-9.43,1.27-14.78,1.27H294.14c-21.11,0-37.93,5.7-50.46,17.1
		c-12.53,11.4-18.79,26.53-18.79,45.39c0,19.98,5.55,35.47,16.68,46.44c11.12,10.98,27.37,16.47,48.76,16.47H748.01z M294.77,699.67
		c4.92-4.78,7.39-10.55,7.39-17.31V149.11c0-6.76-2.47-12.46-7.39-17.1c-4.93-4.64-10.63-6.97-17.1-6.97
		c-6.48,0-12.1,2.32-16.89,6.97c-4.79,4.64-7.18,10.34-7.18,17.1v533.25c0,6.76,2.39,12.53,7.18,17.31
		c4.78,4.79,10.41,7.18,16.89,7.18C284.15,706.85,289.85,704.46,294.77,699.67z M735.35,329.4c7.6,0,14.28-2.81,20.06-8.45
		c5.77-5.63,8.65-12.38,8.65-20.27c0-7.88-2.89-14.63-8.65-20.26c-5.77-5.63-12.46-8.45-20.06-8.45H409.4
		c-7.88,0-14.64,2.82-20.27,8.45c-5.63,5.63-8.44,12.39-8.44,20.26c0,7.88,2.81,14.64,8.44,20.27c5.63,5.63,12.38,8.45,20.27,8.45
		H735.35z M656.82,449.3c7.88,0,14.63-2.81,20.26-8.44c5.63-5.63,8.45-12.52,8.45-20.69c0-7.6-2.82-14.21-8.45-19.84
		c-5.63-5.63-12.39-8.44-20.26-8.44H409.4c-7.88,0-14.64,2.82-20.27,8.44c-5.63,5.63-8.44,12.24-8.44,19.84
		c0,8.17,2.81,15.06,8.44,20.69c5.63,5.63,12.38,8.44,20.27,8.44H656.82z"/>
</g>
</svg>
