<?xml version="1.0" encoding="utf-8"?>
<!-- Generator: Adobe Illustrator 28.1.0, SVG Export Plug-In . SVG Version: 6.00 Build 0)  -->
<svg version="1.1" id="Layer_1" xmlns="http://www.w3.org/2000/svg" xmlns:xlink="http://www.w3.org/1999/xlink" x="0px" y="0px"
	 viewBox="0 0 1024 1024" style="enable-background:new 0 0 1024 1024;" xml:space="preserve">
<style type="text/css">
	.st0{fill:#0C3B2E;}
</style>
<g>
	<path class="st0" d="M971.7,526.45c-0.09-2.2-0.36-4.41,0.39-6.56c0,2.17,0,4.33,0,6.5C972,526.66,971.87,526.68,971.7,526.45z"/>
	<path class="st0" d="M972.09,505.03c-0.79-1.83-0.44-3.75-0.38-5.64c0.17-0.22,0.3-0.2,0.38,0.07
		C972.09,501.32,972.09,503.18,972.09,505.03z"/>
	<path class="st0" d="M971.7,526.45c0.14,0.02,0.26,0,0.39-0.07c0,1.55,0,3.09,0,4.64l-0.19,0.05l-0.2-0.02
		C971.7,529.52,971.7,527.98,971.7,526.45z"/>
	<path class="st0" d="M972.09,499.46c-0.12-0.05-0.25-0.07-0.38-0.07c0-1.38-0.01-2.76-0.01-4.14c0.16-0.33,0.29-0.32,0.39,0.03
		C972.09,496.68,972.09,498.07,972.09,499.46z"/>
	<path class="st0" d="M972.09,495.29l-0.2-0.03l-0.2,0c0-0.93,0-1.85,0-2.78c0.13-0.02,0.26-0.01,0.39,0.02
		C972.09,493.43,972.09,494.36,972.09,495.29z"/>
	<path class="st0" d="M972.09,505.03c-0.52-1.85-0.09-3.75-0.23-5.62c0-1.34,0-2.68,0-4.01c0-0.9,0-1.8,0-2.7
		c-0.01-2.4-0.17-4.8-0.19-7.2c-0.1-13.94-1.42-27.76-3.47-41.55c-3.82-25.77-9.77-51.01-17.87-75.76
		c-4.6-14.04-9.94-27.8-15.87-41.34c-7.48-17.1-16.05-33.63-25.52-49.69c-11.13-18.88-23.71-36.75-37.4-53.87
		c-9.28-11.6-19.24-22.59-29.47-33.33c-7.63-8-15.81-15.44-24.05-22.81c-10.44-9.34-21.33-18.09-32.57-26.44
		c-18.72-13.91-38.45-26.22-59.08-37.07c-15.61-8.21-31.66-15.49-48.12-21.87c-24.51-9.5-49.65-16.8-75.4-21.97
		c-16.6-3.33-33.35-5.67-50.23-7.12c-9.62-0.83-19.26-1.43-28.9-1.67c-13.05-0.33-26.11-0.08-39.16,0.75
		c-9.64,0.61-19.26,1.4-28.84,2.53c-18.06,2.13-35.92,5.47-53.57,9.81c-20.98,5.16-41.52,11.7-61.55,19.83
		c-15.2,6.17-30.06,13.04-44.54,20.76c-15.85,8.45-31.16,17.74-45.94,27.95c-18.03,12.46-35.08,26.13-51.12,41.03
		c-7.07,6.57-14.1,13.19-20.62,20.36c-5.88,6.45-11.82,12.85-17.52,19.46c-10.91,12.67-20.97,25.98-30.37,39.8
		c-13.91,20.43-26.03,41.88-36.47,64.29c-6.87,14.73-12.95,29.78-18.24,45.13c-7.76,22.49-13.55,45.48-17.73,68.9
		c-2.21,12.41-3.89,24.89-5.01,37.43c-0.91,10.31-0.88,20.67-1.02,31.02c-0.13,9.5-0.16,19.01,0.14,28.52
		c0.3,9.76,0.25,19.53,1.2,29.28c1.13,11.54,2.67,23.02,4.68,34.44c5.43,30.87,13.9,60.89,25.52,90
		c6.25,15.66,13.35,30.94,21.31,45.82c6.61,12.35,13.64,24.43,21.33,36.13c8.24,12.54,17.09,24.64,26.48,36.36
		c9.91,12.38,20.53,24.13,31.59,35.47c9.55,9.8,19.7,18.98,30.14,27.83c11.15,9.46,22.75,18.33,34.72,26.72
		c12.1,8.49,24.67,16.22,37.53,23.5c15.29,8.66,31.05,16.36,47.25,23.17c13.55,5.7,27.33,10.75,41.39,15.09
		c13.01,4.02,26.16,7.52,39.47,10.37c17.17,3.67,34.49,6.33,51.97,8.08c11,1.1,22.02,1.8,33.04,2.11
		c13.28,0.37,26.57,0.09,39.86-0.73c10.96-0.68,21.87-1.65,32.75-3.02c16.04-2.02,31.92-5,47.64-8.8
		c22.44-5.41,44.36-12.44,65.73-21.19c16.84-6.9,33.21-14.73,49.14-23.51c19.4-10.69,37.87-22.81,55.55-36.15
		c11.98-9.04,23.48-18.67,34.45-28.88c6.95-6.47,13.89-12.96,20.31-20.01c6.14-6.74,12.4-13.36,18.32-20.3
		c11.25-13.19,21.74-26.95,31.39-41.35c13.2-19.68,24.86-40.23,34.91-61.71c7.06-15.08,13.32-30.46,18.72-46.19
		c7.55-21.98,13.25-44.43,17.43-67.3c3.82-20.89,5.93-41.92,5.88-63.16c0-1.44,0-2.89,0-4.33c0.14-2.15-0.29-4.31,0.23-6.45
		C972.09,514.93,972.09,509.98,972.09,505.03z M685.6,725.65c-9.34-4.63-18.08-10.4-27.32-15.24
		c-36.18-18.97-74.39-32.1-114.41-40.12c-40.93-8.2-82.3-10.68-123.93-9.18c-23.35,0.84-46.59,3.03-69.74,6.24
		c-17.84,2.47-35.58,5.54-53.23,9.1c-6.51,1.31-12.8,3.56-19.37,4.67c-15.42,2.6-30.56-8.25-32.78-23.75
		c-1.52-10.61,0.37-20.38,8.35-28.2c5.05-4.95,11.48-7.08,18.22-8.53c18.58-3.99,37.24-7.6,56.03-10.5
		c20.79-3.2,41.66-5.69,62.64-7.26c23.39-1.76,46.8-2.48,70.25-1.84c23.45,0.64,46.77,2.57,69.98,5.97
		c37.29,5.46,73.59,14.72,108.73,28.41c25.47,9.92,50.04,21.7,73.16,36.34c6.58,4.16,11.66,9.65,13.62,17.5
		c0.85,3.39,1.27,6.83,1.23,10.33C727.24,721.68,705.43,735.48,685.6,725.65z M781.85,585.75c-7.77,18.62-28.93,27-47.25,18.64
		c-7.81-3.57-15.01-8.29-22.55-12.38c-34.74-18.81-71.32-32.99-109.32-43.61c-29.97-8.38-60.42-14.34-91.31-18.09
		c-36.32-4.4-72.76-5.72-109.3-3.71c-29.37,1.61-58.49,5.26-87.29,11.33c-14.14,2.98-28.13,6.5-42,10.57
		c-20.11,5.91-40.3-4.36-45.73-23.84c-4.09-14.7-1.61-28.44,9.71-39.58c5.08-5,11.56-7.62,18.33-9.51
		c24.2-6.74,48.6-12.6,73.41-16.67c19.69-3.23,39.5-5.46,59.42-6.75c15.83-1.02,31.68-1.44,47.53-1.47
		c28.95-0.03,57.8,1.69,86.55,5.18c61.57,7.46,121.11,22.58,178.21,46.95c22.49,9.6,44.32,20.51,65.18,33.28
		C782.82,546.72,789.51,567.38,781.85,585.75z M830.47,458.83c-14.84,9.83-30.47,10.39-45.99,1.46
		c-16.09-9.26-32.5-17.84-49.58-25.13c-37.08-15.82-75.58-27.03-114.97-35.36c-24.28-5.13-48.76-9.08-73.41-11.95
		c-43.86-5.1-87.86-7.04-131.99-5.56c-25.82,0.87-51.56,2.9-77.17,6.41c-27.89,3.83-55.46,9.26-82.49,17.24
		c-10.04,2.96-20.1,4.18-30.35,1.06c-19.69-6-32.23-25.4-30.16-46.26c1.43-14.38,7.35-26.01,19.53-34.17
		c6.29-4.21,13.48-6.04,20.63-8.02c29.53-8.16,59.51-14.08,89.87-18.2c38.41-5.22,77.06-7.53,123.92-7.78
		c20.58-0.08,48.71,1,76.77,3.35c53.94,4.52,107.16,13.29,159.38,27.74c48.96,13.54,96.04,31.69,140.15,57.14
		c8.75,5.05,16.42,11.2,20.49,20.75C852.89,419.85,851.3,445.04,830.47,458.83z"/>
</g>
</svg>
